<?xml version="1.0" encoding="UTF-8" standalone="no"?>
<!-- Created with Inkscape (http://www.inkscape.org/) -->

<svg
   width="210mm"
   height="297mm"
   viewBox="0 0 210 297"
   version="1.1"
   id="svg5"
   inkscape:version="1.1.2 (b8e25be833, 2022-02-05)"
   sodipodi:docname="hhu_grad.svg"
   inkscape:export-filename="D:\HB\HB92\255-180-120-60-grad.png"
   inkscape:export-xdpi="96"
   inkscape:export-ydpi="96"
   xml:space="preserve"
   xmlns:inkscape="http://www.inkscape.org/namespaces/inkscape"
   xmlns:sodipodi="http://sodipodi.sourceforge.net/DTD/sodipodi-0.dtd"
   xmlns:xlink="http://www.w3.org/1999/xlink"
   xmlns="http://www.w3.org/2000/svg"
   xmlns:svg="http://www.w3.org/2000/svg"><sodipodi:namedview
     id="namedview7"
     pagecolor="#ffffff"
     bordercolor="#000000"
     borderopacity="0.25"
     inkscape:showpageshadow="2"
     inkscape:pageopacity="0.0"
     inkscape:pagecheckerboard="0"
     inkscape:deskcolor="#d1d1d1"
     inkscape:document-units="mm"
     showgrid="false"
     inkscape:zoom="1.0723394"
     inkscape:cx="-534.81204"
     inkscape:cy="-1820.3193"
     inkscape:window-width="1920"
     inkscape:window-height="1161"
     inkscape:window-x="1920"
     inkscape:window-y="0"
     inkscape:window-maximized="0"
     inkscape:current-layer="g863"
     inkscape:pageshadow="2"
     inkscape:snap-bbox="true"><inkscape:page
       x="0"
       y="0"
       width="210"
       height="297"
       id="page1095" /><inkscape:page
       x="220"
       y="0"
       width="261.92233"
       height="138.94577"
       id="page1097" /></sodipodi:namedview><defs
     id="defs2"><linearGradient
       inkscape:collect="always"
       id="linearGradient1151"><stop
         style="stop-color:#ffffff;stop-opacity:1;"
         offset="0"
         id="stop1147" /><stop
         style="stop-color:#000000;stop-opacity:1"
         offset="1"
         id="stop1149" /></linearGradient><linearGradient
       inkscape:collect="always"
       xlink:href="#linearGradient1151"
       id="linearGradient1153"
       x1="23.647402"
       y1="-461.61697"
       x2="137.72567"
       y2="-461.61697"
       gradientUnits="userSpaceOnUse"
       gradientTransform="matrix(0.8999946,0,0,0.86369772,-77.472434,-89.2745)" /><clipPath
       clipPathUnits="userSpaceOnUse"
       id="clipPath1075"><path
         d="M 0,393.862 H 742.457 V 0 H 0 Z"
         id="path1073" /></clipPath></defs><g
     inkscape:label="Layer 1"
     inkscape:groupmode="layer"
     id="layer1"><rect
       style="fill:#000000;stroke-width:0.264583"
       id="rect61"
       width="508"
       height="285.75"
       x="-236.14975"
       y="-677.22351"
       inkscape:export-filename="D:\HB\HB100\hhu.png"
       inkscape:export-xdpi="96.000008"
       inkscape:export-ydpi="96.000008" /></g><g
     id="g863"
     transform="matrix(-1.172109,0,0,1.172109,-74.873009,91.721471)"
     inkscape:export-filename="D:\HB\HB100\hhu.png"
     inkscape:export-xdpi="96.000008"
     inkscape:export-ydpi="96.000008"><rect
       style="fill:#3c3c3c;fill-opacity:1;stroke-width:0.137425"
       id="rect315"
       width="17.257833"
       height="24.622284"
       x="-56.189896"
       y="-586.04108"
       inkscape:export-filename="D:\HB\HB99\rect61.png"
       inkscape:export-xdpi="96.000008"
       inkscape:export-ydpi="96.000008" /><rect
       style="fill:#ffffff;fill-opacity:1;stroke-width:0.137424"
       id="rect315-6"
       width="17.257833"
       height="24.621937"
       x="29.222122"
       y="-586.04108"
       inkscape:export-filename="D:\HB\HB99\rect61.png"
       inkscape:export-xdpi="96.000008"
       inkscape:export-ydpi="96.000008" /><rect
       style="fill:#b4b4b4;fill-opacity:1;stroke-width:0.137425"
       id="rect315-6-0"
       width="17.257833"
       height="24.622284"
       x="0.7512964"
       y="-586.04108"
       inkscape:export-filename="D:\HB\HB99\rect61.png"
       inkscape:export-xdpi="96.000008"
       inkscape:export-ydpi="96.000008" /><rect
       style="fill:#787878;fill-opacity:1;stroke-width:0.137425"
       id="rect315-6-0-3"
       width="17.257833"
       height="24.622284"
       x="-27.719284"
       y="-586.04108"
       inkscape:export-filename="D:\HB\HB99\rect61.png"
       inkscape:export-xdpi="96.000008"
       inkscape:export-ydpi="96.000008" /><rect
       style="fill:url(#linearGradient1153);fill-opacity:1;stroke-width:0.280623"
       id="rect315-8-8"
       width="102.66983"
       height="17.257833"
       x="-56.189896"
       y="-496.60089"
       inkscape:export-filename="D:\HB\HB99\rect61.png"
       inkscape:export-xdpi="96.000008"
       inkscape:export-ydpi="96.000008" /><g
       id="g1069"
       transform="matrix(0.18107866,0,0,-0.18107867,-72.945584,-492.82531)"
       style="fill:#ffffff"
       inkscape:export-filename="D:\HB\HB99\rect61.png"
       inkscape:export-xdpi="96.000008"
       inkscape:export-ydpi="96.000008"><g
         id="g1071"
         clip-path="url(#clipPath1075)"
         style="fill:#ffffff"><g
           id="g1077"
           transform="translate(598.1934,84.4713)"
           style="fill:#ffffff"><path
             d="m 0,0 h 33.849 c 14.856,0 26.898,12.011 26.898,26.828 0,14.818 -12.042,26.828 -26.898,26.828 L 0,53.658 Z"
             style="fill:#ffffff;fill-opacity:1;fill-rule:nonzero;stroke:none"
             id="path1079" /></g><g
           id="g1081"
           transform="translate(575.918,253.7589)"
           style="fill:#ffffff"><path
             d="m 0,0 v -73.534 c 0,-43.832 -32.838,-73.534 -73.346,-73.534 -40.507,0 -73.343,29.702 -73.343,73.534 V 0 h 37.167 c 0,-13.366 0.001,-67.605 0.001,-70.338 0,-22.723 16.198,-38.262 36.176,-38.262 19.981,0 36.178,15.539 36.178,38.262 V 0 Z"
             style="fill:#ffffff;fill-opacity:1;fill-rule:nonzero;stroke:none"
             id="path1083" /></g><g
           id="g1085"
           transform="translate(129.7007,110.482)"
           style="fill:#ffffff"><path
             d="M 0,0 H -37.168 V 190.28 H 0 v -52.14 c 10.683,5.742 23.009,8.927 36.177,8.927 40.507,0 73.345,-29.701 73.345,-73.533 V 0 H 72.354 V 70.338 C 72.354,93.061 56.157,108.6 36.177,108.6 16.198,108.6 0.001,93.061 0.001,70.338 Z"
             style="fill:#ffffff;fill-opacity:1;fill-rule:nonzero;stroke:none"
             id="path1087" /></g><g
           id="g1089"
           transform="translate(298.6694,110.482)"
           style="fill:#ffffff"><path
             d="m 0,0 h -37.17 v 190.28 h 37.168 v -52.14 c 10.682,5.742 23.009,8.927 36.177,8.927 40.507,0 73.345,-29.701 73.345,-73.533 V 0 H 72.352 v 70.338 c 0,22.723 -16.197,38.262 -36.177,38.262 -19.98,0 -36.176,-15.539 -36.176,-38.262 z"
             style="fill:#ffffff;fill-opacity:1;fill-rule:nonzero;stroke:none"
             id="path1091" /></g></g></g></g></svg>
